<?xml version="1.0" standalone="no"?>
<!DOCTYPE svg PUBLIC "-//W3C//DTD SVG 20010904//EN"
 "http://www.w3.org/TR/2001/REC-SVG-20010904/DTD/svg10.dtd">
<svg version="1.0" xmlns="http://www.w3.org/2000/svg"
 width="563.000000pt" height="144.000000pt" viewBox="0 0 563.000000 144.000000"
 preserveAspectRatio="xMidYMid meet">

<g transform="translate(0.000000,144.000000) scale(0.100000,-0.100000)"
fill="#000000" stroke="none">
<path d="M3110 965 c-58 -18 -128 -77 -151 -129 -12 -27 -19 -65 -19 -112 0
-125 65 -213 184 -245 53 -14 171 -12 226 4 l45 13 3 53 c2 30 -1 58 -6 63 -6
6 -30 4 -63 -6 -102 -31 -200 -15 -234 38 -43 65 -23 160 40 190 41 20 155 20
209 1 22 -8 43 -12 48 -9 10 7 10 95 -1 112 -24 38 -193 54 -281 27z"/>
<path d="M4225 971 c-88 -23 -162 -87 -184 -160 -16 -54 -14 -145 5 -189 19
-47 68 -98 116 -123 69 -35 221 -40 301 -10 25 10 27 14 27 71 0 67 0 67 -74
45 -66 -20 -143 -19 -186 3 -75 37 -92 145 -31 206 29 28 37 31 109 34 51 3
92 -1 121 -12 25 -8 48 -13 53 -10 4 3 8 30 8 60 0 54 -1 55 -37 71 -42 18
-181 27 -228 14z"/>
<path d="M3615 953 c-3 -10 -44 -115 -91 -234 -46 -119 -84 -221 -84 -227 0
-8 23 -12 69 -12 l69 0 18 45 17 45 116 0 117 0 15 -42 16 -43 73 -3 c68 -3
72 -2 67 17 -2 10 -44 121 -92 245 l-88 226 -107 0 c-94 0 -109 -2 -115 -17z
m149 -182 c14 -36 26 -66 26 -68 0 -2 -27 -3 -61 -3 -45 0 -60 3 -56 13 2 6
15 40 27 75 13 35 26 59 31 55 4 -4 19 -37 33 -72z"/>
<path d="M4621 733 c-50 -131 -91 -242 -91 -246 0 -4 32 -7 72 -5 l71 3 16 43
15 42 117 0 116 0 17 -45 18 -45 69 0 c80 0 80 0 45 86 -13 32 -53 137 -90
232 l-68 172 -107 0 -108 0 -92 -237z m226 60 c12 -32 25 -66 29 -75 5 -16 -1
-18 -56 -18 -55 0 -61 2 -56 18 32 84 52 132 56 132 3 0 15 -26 27 -57z"/>
<path d="M5134 956 c-3 -9 -4 -87 -2 -173 3 -137 7 -163 25 -198 44 -84 106
-117 222 -117 92 0 149 21 190 68 48 54 61 117 61 286 l0 149 -67 -3 -68 -3
-5 -162 c-5 -161 -5 -163 -33 -190 -23 -23 -36 -28 -77 -28 -41 0 -54 5 -77
28 -28 27 -28 29 -33 190 l-5 162 -63 3 c-49 2 -64 0 -68 -12z"/>
</g>
</svg>
